<svg xmlns="http://www.w3.org/2000/svg" width="64" height="64" viewBox="0 0 64 64">
  <rect width="64" height="64" rx="14" fill="#0a0a0a"/>
  <path
    d="M 34 29
       C 34 31.5, 32.5 33.5, 30 33.5
       C 27 33.5, 25.5 31, 25.5 28.5
       C 25.5 25.5, 28 22.5, 31 22.5
       C 35 22.5, 38.5 25, 39 29
       C 39.5 34, 36 38.5, 31 38.5
       C 24.5 38.5, 20.5 34, 20 28.5
       C 19.5 22, 24 16.5, 31 16
       C 39.5 15.5, 46 22, 46 30
       C 46 39, 40 47, 31 47"
    fill="none"
    stroke="#f5f0eb"
    stroke-width="4"
    stroke-linecap="round"
  />
</svg>
